<svg xmlns="http://www.w3.org/2000/svg" xmlns:xlink="http://www.w3.org/1999/xlink" xmlns:bx="https://boxy-svg.com"><defs><filter id="a"><feFlood flood-color="#FF4A4A" flood-opacity="1" result="floodOut"/><feComposite operator="atop" in="floodOut" in2="SourceGraphic" result="compOut"/><feBlend in="compOut" in2="SourceGraphic"/></filter><clipPath id="clip0"><path d="M0 0h16v16H0z"/></clipPath></defs><symbol id="checked"><path d="M12 24C5.373 24 0 18.627 0 12S5.373 0 12 0s12 5.373 12 12-5.373 12-12 12zm0-1.3c5.91 0 10.7-4.79 10.7-10.7 0-5.91-4.79-10.7-10.7-10.7C6.09 1.3 1.3 6.09 1.3 12c0 5.91 4.79 10.7 10.7 10.7zm.517-6.93a.698.698 0 01-1.031 0L7.2 11.27a.767.767 0 01-.2-.52c0-.414.32-.75.714-.75.193 0 .367.08.496.21l3.792 3.981 3.742-3.93a.699.699 0 01.542-.261c.394 0 .714.336.714.75a.783.783 0 01-.197.52l-4.286 4.5z" fill-rule="nonzero"/></symbol><symbol id="htmla-logo" viewBox="0 0 108 37"><path d="M103.727 29.189c-.899 2.16-2.074 2.886-3.336 2.886a4.67 4.67 0 01-1.089-.138v-1.573c.277.087.571.121.847.121.899 0 1.573-.639 2.057-1.935l.173-.415-3.941-8.365h1.97l2.8 6.256 2.472-6.256h1.935l-3.888 9.419zm-8.054-6.256c0-1.072-.64-1.745-1.642-1.745-.916 0-1.625.604-2.057 1.123.018.19.035.38.035.57v5.185H90.16v-5.133c0-1.072-.64-1.745-1.642-1.745-1.002 0-1.763.725-2.195 1.278v5.6h-1.849V19.77h1.642v1.037c.449-.501 1.417-1.261 2.765-1.261 1.244 0 2.108.518 2.592 1.33.726-.725 1.694-1.33 2.904-1.33 2.194 0 3.145 1.624 3.145 3.335v5.185h-1.849v-5.133zm-19.322 1.676c.207 1.487 1.659 2.109 3.18 2.109a6.07 6.07 0 002.627-.588v1.59c-.76.364-1.815.571-2.973.571-2.54 0-4.701-1.452-4.701-4.373 0-3.007 2.282-4.372 4.2-4.372 3.301 0 4.442 2.661 3.906 5.063h-6.239zm2.419-3.525c-1.244 0-2.367.743-2.436 2.143h4.597c.104-.726-.346-2.143-2.161-2.143zm-7.742 5.669c-.64.812-1.625 1.538-3.18 1.538-2.506 0-4.113-1.988-4.113-4.373 0-2.385 1.607-4.372 4.113-4.372 1.452 0 2.419.639 2.989 1.296v-4.874h1.85v12.098h-1.659v-1.313zm-.208-3.855c-.397-.898-1.348-1.728-2.644-1.728-1.486 0-2.575 1.124-2.575 2.748s1.089 2.748 2.575 2.748c1.296 0 2.247-.83 2.644-1.746v-2.022zm.017-21.455h1.85v12.098h-1.85V1.443zm-4.554 6.965c0-1.071-.64-1.745-1.642-1.745-.916 0-1.624.604-2.056 1.123.017.19.034.38.034.57v5.185H60.77V8.408c0-1.071-.639-1.745-1.642-1.745-1.002 0-1.763.726-2.195 1.278v5.6h-1.849V5.245h1.642v1.037c.449-.501 1.417-1.261 2.765-1.261 1.244 0 2.109.518 2.592 1.331.726-.727 1.694-1.331 2.904-1.331 2.195 0 3.145 1.624 3.145 3.335v5.185h-1.849V8.408zm-8.494 12.745a7.398 7.398 0 00-2.99.639v-1.694c.657-.224 1.85-.552 3.18-.552 2.351 0 3.837 1.123 3.837 3.629v2.973c0 .466.277.605.605.605.19 0 .38-.053.553-.104v1.33c-.346.138-.76.208-1.175.208-.761 0-1.365-.294-1.659-.968-.813.657-1.832 1.071-3.129 1.071-1.503 0-2.903-.829-2.903-2.54 0-2.126 1.97-2.782 3.699-2.782.708 0 1.503.103 2.16.241v-.293c0-1.037-.761-1.763-2.178-1.763zm.381 3.111c-1.055 0-2.161.328-2.161 1.365 0 .812.726 1.227 1.556 1.227.881 0 1.745-.329 2.402-.985v-1.4c-.501-.103-1.21-.207-1.797-.207zM47.878 11.018V6.87h-1.486V5.245h1.486V2.739l1.832-.449v2.955h3.007V6.87H49.71v3.802c0 1.089.501 1.452 1.573 1.452.605 0 1.158-.121 1.676-.328v1.59c-.622.224-1.417.362-2.229.362-1.608 0-2.852-.795-2.852-2.73zm2.428 8.528c.933 0 1.832.207 2.558.639v1.694c-.605-.432-1.452-.691-2.299-.691-1.469 0-2.955.777-2.955 2.73 0 1.884 1.434 2.731 2.921 2.731.881 0 1.762-.26 2.419-.639v1.71c-.795.38-1.693.57-2.748.57-2.212 0-4.476-1.347-4.476-4.303 0-3.093 2.368-4.441 4.58-4.441zm-8.175 7.673c-.812.657-1.832 1.071-3.128 1.071-1.503 0-2.903-.829-2.903-2.54 0-2.126 1.97-2.782 3.698-2.782.709 0 1.504.103 2.161.241v-.293c0-1.037-.761-1.763-2.178-1.763a7.394 7.394 0 00-2.99.639v-1.694c.657-.224 1.849-.552 3.18-.552 2.35 0 3.837 1.123 3.837 3.629v2.973c0 .466.276.605.605.605.19 0 .38-.053.553-.104v1.33a3.238 3.238 0 01-1.175.208c-.761 0-1.366-.294-1.66-.968zm-.172-2.748c-.502-.103-1.21-.207-1.798-.207-1.054 0-2.16.328-2.16 1.365 0 .812.726 1.227 1.555 1.227.882 0 1.746-.329 2.403-.985v-1.4zm.838-15.821c0-1.348-.83-1.987-1.936-1.987-1.054 0-1.849.708-2.316 1.382v5.496h-1.849V1.443h1.849v4.718a3.778 3.778 0 012.679-1.14c2.091 0 3.422 1.417 3.422 3.387v5.133h-1.849V8.65zM-.001 28.066V1.519L14.483.001l.152.015 14.332 1.503v26.547l-14.484 8.619-14.484-8.619zm27.073-24.84L14.483 1.905 1.894 3.226v9.958l12.518-7.453V5.73h.003v.001l12.657 7.462V3.226zM14.446 18.237l3.19 1.879.024-.014.997-.667-4.224-2.512.013-1.312 5.35 3.183.921-.543.14-.082.057-.034-6.481-3.854.013-1.313 7.582 4.511 1.59-.937 3.444-2.029-12.65-7.372V7.14L1.921 14.648l12.473 7.415 2.133-1.281-2.094-1.233.013-1.312zm12.626-2.312l-3.884 2.319v4.288l.011-.006v1.319l-8.716 5.215-8.633-5.189.012-1.312 8.631 5.134-.022-1.388-8.633-5.189.013-1.313 8.599 5.118-.021-1.352-12.535-7.461v10.881l12.589 7.491 12.589-7.491V15.925z"/></symbol><symbol id="icon-1"><g filter="url(#a)"><path fill-rule="evenodd" d="M21.937 13.863H4.063V7.776h17.874v6.087zM6.094 11.832h13.812V9.807H6.094v2.025zm15.843-7.966H4.063v2.031h17.874V3.866zm0 13.901h-9.749v2.032h9.749v-2.032zM10.156 21.83H4.063v-6.088h6.093v6.088zm-4.062-2.031h2.031v-2.026H6.094v2.026zM22.953 26H3.047A3.05 3.05 0 010 22.953V3.047A3.05 3.05 0 013.047 0h19.906A3.05 3.05 0 0126 3.047v19.906A3.05 3.05 0 0122.953 26zM3.047 2.031c-.56 0-1.016.456-1.016 1.016v19.906c0 .56.456 1.016 1.016 1.016h19.906c.56 0 1.016-.456 1.016-1.016V3.047c0-.56-.456-1.016-1.016-1.016H3.047z"/></g></symbol><symbol id="icon-2"><g clip-path="url(#clip0)"><path d="M13.485 1.431a1.473 1.473 0 012.104 2.062l-7.84 9.801a1.473 1.473 0 01-2.12.04L.431 8.138a1.473 1.473 0 012.084-2.083l4.111 4.112 6.82-8.69a.494.494 0 01.04-.045l-.001-.001z"/></g></symbol><symbol id="icon-3"><path d="M16 2H8C4.691 2 2 4.691 2 8v13a1 1 0 001 1h13c3.309 0 6-2.691 6-6V8c0-3.309-2.691-6-6-6zm4 14c0 2.206-1.794 4-4 4H4V8c0-2.206 1.794-4 4-4h8c2.206 0 4 1.794 4 4v8z"/><path d="M7 9h10v2H7V9zm0 4h7v2H7v-2z"/></symbol><symbol id="icon-4" viewBox="0 0 512 512"><path d="M472.178 96.711h-119.29L334.422 50.55a17.063 17.063 0 00-15.845-10.728H193.422a17.066 17.066 0 00-15.846 10.728l-18.464 46.161H39.822C17.829 96.711 0 114.54 0 136.533v144.986c0 5.385 4.367 9.752 9.752 9.752h13.004v158.151c0 12.568 10.188 22.756 22.756 22.756h417.186c14.661 0 26.548-11.886 26.548-26.548V291.271h11.378c6.284 0 11.378-5.094 11.378-11.378v-143.36c-.002-21.993-17.831-39.822-39.824-39.822zM204.976 73.956h102.046l9.102 22.756h-120.25l9.102-22.756zm250.135 358.4a5.69 5.69 0 01-5.689 5.689H62.578a5.69 5.69 0 01-5.689-5.689V291.271h134.258V307.2c0 9.425 7.641 17.067 17.067 17.067h95.573c9.425 0 17.067-7.641 17.067-17.067v-15.929h134.258v141.085zM225.28 288.996v-30.72h61.44v30.72h-61.44zm252.587-31.858H320.854v-15.929c0-9.425-7.641-17.067-17.067-17.067h-95.573c-9.425 0-17.067 7.641-17.067 17.067v15.929H34.134V136.533a5.69 5.69 0 015.689-5.689h432.356a5.69 5.69 0 015.689 5.689v120.605z"/></symbol><symbol id="icon-5"><path fill-rule="evenodd" clip-rule="evenodd" d="M1238 656.541V900H.5V0h158.117c-39.274 75.022-56.387 135.673-51.338 181.954 7.574 69.422 74.172 170.085 153.625 224.855 79.453 54.769 155.098 54.491 231.551 164.889 76.453 110.399 126.018 229.95 196.002 275.001 69.984 45.051 174.721 85.989 294.832 0 52.931-37.893 44.871-84.989 125.321-128.177 27.51-14.766 70.64-35.426 129.39-61.981z"/></symbol><symbol id="icon-close"><path d="M19.12.34l-8.619 8.619L1.882.339A1.091 1.091 0 00.341 1.881L8.955 10.5.338 19.117A1.091 1.091 0 101.88 20.66l8.621-8.616 8.62 8.619a1.091 1.091 0 001.54-1.542l-8.618-8.619 8.619-8.621A1.092 1.092 0 0019.474.09a1.091 1.091 0 00-.354.246V.34z"/></symbol><symbol id="icon-play"><path d="M32.16 16.08L8.94 4.47A2.07 2.07 0 006 6.32v23.21a2.06 2.06 0 003 1.85l23.16-11.61a2.07 2.07 0 000-3.7v.01z"/></symbol><symbol id="keksobooking" viewBox="0 0 211 45"><g fill-rule="evenodd"><path d="M185.688 39.827l-.326.646c-.473.841-1.239 1.262-2.298 1.262l-.737-.043.014-1.432c.114.019.314.028.603.028.51 0 .87-.215 1.078-.646l.368-.864-3.531-7.517h1.957l2.404 5.397 2.071-5.397h1.992l-3.595 8.566zm-6.704-1.255c0 .969-.311 1.714-.932 2.234-.622.52-1.512.78-2.67.78h-3.765V31.261h3.538c1.168 0 2.056.234 2.666.702.61.468.915 1.166.915 2.092 0 .473-.128.898-.383 1.277-.255.378-.629.671-1.12.879.557.151.989.436 1.294.854.305.419.457.921.457 1.507zm-2.471-5.524c-.291-.227-.744-.34-1.358-.34h-1.744v2.9h1.758c.558 0 .994-.126 1.308-.379.315-.253.472-.611.472-1.074 0-.511-.145-.88-.436-1.107zm-.961 3.879h-2.141v3.212h1.992c.563 0 1.002-.138 1.319-.416.317-.278.475-.664.475-1.158 0-1.068-.548-1.614-1.645-1.638zm-9.235 4.659h-1.78v-8.878h-3.191v-1.447h8.19v1.447h-3.219v8.878zm-12.373-2.185c.399.587.984.88 1.755.88.704 0 1.233-.158 1.588-.475.354-.317.579-.844.674-1.581h1.787c-.105 1.101-.511 1.96-1.22 2.577s-1.652.926-2.829.926c-.823 0-1.548-.195-2.174-.585-.626-.39-1.11-.944-1.45-1.663-.34-.719-.518-1.553-.532-2.503v-.965c0-.973.173-1.831.518-2.574.345-.742.84-1.314 1.485-1.716.646-.401 1.391-.602 2.238-.602 1.139 0 2.056.308 2.751.925.695.617 1.099 1.49 1.213 2.62h-1.787c-.086-.742-.302-1.277-.649-1.606-.348-.329-.857-.493-1.528-.493-.78 0-1.38.285-1.798.855-.418.571-.632 1.407-.642 2.509v.916c0 1.117.2 1.968.6 2.555zm-5.942 4.724v-2.539h-6.8v2.539h-1.731l-.056-3.986h.829c.412-.396.74-.973.986-1.731.246-.757.404-1.615.475-2.573l.269-4.574h6.51v8.878h1.312l-.092 3.986h-1.702zm-1.305-11.417h-3.014l-.17 2.902c-.127 1.939-.541 3.449-1.241 4.529h4.425v-7.431zm-15.426-1.447h6.701v1.447h-4.907v2.851h4.241v1.418h-4.241v3.162h4.957v1.447h-6.751V31.261zm-8.132 8.14c.399.587.984.88 1.755.88.704 0 1.233-.158 1.588-.475.355-.317.579-.844.674-1.581h1.787c-.104 1.101-.511 1.96-1.22 2.577s-1.652.926-2.829.926c-.823 0-1.548-.195-2.174-.585-.626-.39-1.11-.944-1.45-1.663-.34-.719-.518-1.553-.532-2.503v-.965c0-.973.173-1.831.518-2.574.345-.742.84-1.314 1.485-1.716.646-.401 1.391-.602 2.238-.602 1.139 0 2.056.308 2.751.925.695.617 1.099 1.49 1.213 2.62h-1.787c-.085-.742-.302-1.277-.649-1.606-.348-.329-.857-.493-1.528-.493-.78 0-1.38.285-1.798.855-.418.571-.632 1.407-.642 2.509v.916c0 1.117.2 1.968.6 2.555zm-6.612 1.713c-.65.409-1.398.614-2.245.614-.836 0-1.582-.205-2.237-.614-.655-.408-1.16-.991-1.517-1.748-.357-.756-.538-1.628-.543-2.616v-.582c0-1.007.179-1.895.536-2.666.357-.77.86-1.36 1.51-1.769.65-.409 1.396-.613 2.237-.613.842 0 1.587.202 2.238.606.649.404 1.152.985 1.506 1.744.355.759.535 1.642.539 2.649v.574c0 1.012-.175 1.899-.524 2.663-.35.763-.85 1.35-1.5 1.758zm.23-4.96c0-1.144-.216-2.021-.649-2.631-.432-.609-1.045-.914-1.84-.914-.775 0-1.381.303-1.819.911-.437.607-.66 1.467-.67 2.577v.596c0 1.135.221 2.012.663 2.631.442.619 1.056.929 1.84.929.795 0 1.406-.303 1.834-.908.427-.605.641-1.489.641-2.652v-.539zm-14.578 3.247c.399.587.984.88 1.755.88.704 0 1.234-.158 1.588-.475.355-.317.579-.844.674-1.581h1.787c-.104 1.101-.511 1.96-1.22 2.577s-1.652.926-2.829.926c-.823 0-1.547-.195-2.174-.585-.626-.39-1.109-.944-1.45-1.663-.34-.719-.517-1.553-.532-2.503v-.965c0-.973.173-1.831.518-2.574.345-.742.84-1.314 1.486-1.716.645-.401 1.391-.602 2.237-.602 1.139 0 2.056.308 2.751.925.695.617 1.099 1.49 1.213 2.62h-1.787c-.085-.742-.302-1.277-.649-1.606-.347-.329-.857-.493-1.528-.493-.78 0-1.379.285-1.798.855-.418.571-.632 1.407-.641 2.509v.916c0 1.117.199 1.968.599 2.555zm-10.955 1.713c-.65.409-1.398.614-2.244.614-.837 0-1.582-.205-2.237-.614-.655-.408-1.161-.991-1.518-1.748-.357-.756-.537-1.628-.542-2.616v-.582c0-1.007.178-1.895.535-2.666.357-.77.861-1.36 1.511-1.769.65-.409 1.395-.613 2.237-.613.841 0 1.587.202 2.237.606.65.404 1.153.985 1.507 1.744.355.759.534 1.642.539 2.649v.574c0 1.012-.175 1.899-.525 2.663-.35.763-.85 1.35-1.5 1.758zm.231-4.96c0-1.144-.216-2.021-.649-2.631-.432-.609-1.046-.914-1.84-.914-.775 0-1.382.303-1.819.911-.437.607-.661 1.467-.67 2.577v.596c0 1.135.221 2.012.663 2.631.442.619 1.055.929 1.84.929.794 0 1.405-.303 1.833-.908.428-.605.642-1.489.642-2.652v-.539zm-11.122-3.446h-4.545v8.878h-1.787V31.261h8.119v10.325h-1.787v-8.878zm-15.428-1.447h1.787v10.325h-1.787V31.261zm-4.68 10.325h-3.95V31.261h1.794v3.95h2.113c.756 0 1.416.13 1.978.39.563.26.991.629 1.284 1.106.293.478.439 1.031.439 1.66 0 .964-.327 1.739-.982 2.325-.654.587-1.547.885-2.676.894zm1.375-4.463c-.331-.301-.789-.456-1.375-.465h-2.156v3.481h2.106c.605 0 1.076-.163 1.415-.489.337-.327.507-.76.507-1.301 0-.517-.166-.926-.497-1.226zm-13.508 2.278c.4.587.985.88 1.755.88.705 0 1.234-.158 1.589-.475.354-.317.579-.844.673-1.581h1.787c-.104 1.101-.51 1.96-1.219 2.577-.709.617-1.652.926-2.83.926-.822 0-1.547-.195-2.173-.585-.626-.39-1.11-.944-1.45-1.663-.34-.719-.518-1.553-.532-2.503v-.965c0-.973.173-1.831.518-2.574.345-.742.84-1.314 1.485-1.716.646-.401 1.391-.602 2.238-.602 1.139 0 2.056.308 2.751.925.695.617 1.099 1.49 1.212 2.62h-1.787c-.085-.742-.301-1.277-.648-1.606-.348-.329-.857-.493-1.528-.493-.78 0-1.38.285-1.798.855-.418.571-.632 1.407-.642 2.509v.916c0 1.117.2 1.968.599 2.555zm-5.948 2.185l-3.156-4.425h-1.219v4.425h-1.787V31.261h1.787v4.34h.985l3.035-4.34h2.198l-3.545 4.943 3.857 5.382h-2.155zm-15.15-10.325h6.701v1.447h-4.907v2.851h4.241v1.418h-4.241v3.162h4.957v1.447h-6.751V31.261zM23.12 41.586l-3.156-4.425h-1.219v4.425h-1.787V31.261h1.787v4.34h.985l3.035-4.34h2.198l-3.545 4.943 3.857 5.382H23.12z"/><path d="M201.58 11.205c-.958 0-1.767-.713-1.767-1.589 0-.877.809-1.589 1.767-1.589h6.11c.959 0 1.738.712 1.738 1.589v5.643c0 .438-.18.849-.51 1.151-2.036 1.862-4.732 2.794-7.398 2.794-2.695 0-5.391-.932-7.428-2.794-1.976-1.808-3.055-4.219-3.055-6.794 0-2.548 1.079-4.959 3.055-6.767 1.977-1.835 4.613-2.822 7.428-2.822 2.786 0 5.422.987 7.428 2.822.33.301.48.685.48 1.096 0 .411-.15.822-.51 1.151a1.759 1.759 0 01-1.228.465c-.449 0-.898-.137-1.228-.465-1.317-1.206-3.085-1.863-4.942-1.863-1.887 0-3.624.657-4.942 1.863-1.317 1.205-2.066 2.821-2.066 4.52 0 1.698.749 3.314 2.066 4.52 1.348 1.26 3.145 1.89 4.942 1.89a7.407 7.407 0 004.433-1.452v-3.369h-4.373zm-14.68 7.999c-.569 0-1.108-.247-1.437-.685l-9.046-11.835v10.931c0 .877-.808 1.589-1.767 1.589-.958 0-1.737-.712-1.737-1.589V1.616c0-.821.719-1.589 1.767-1.589.539 0 1.078.247 1.408.685l9.045 11.835V1.616c0-.876.779-1.589 1.767-1.589.959 0 1.738.713 1.738 1.589v15.999c0 .849-.779 1.589-1.738 1.589zm-19.919 0c-.958 0-1.737-.712-1.737-1.589V1.616c0-.876.779-1.589 1.737-1.589.959 0 1.737.713 1.737 1.589v15.999c0 .877-.778 1.589-1.737 1.589zm-4.136-1.589c0 .877-.779 1.589-1.737 1.589a1.78 1.78 0 01-1.288-.521l-7.428-7.451v6.383c0 .877-.809 1.589-1.767 1.589-.959 0-1.738-.712-1.738-1.589V1.616c0-.876.779-1.589 1.738-1.589.958 0 1.767.713 1.767 1.589v6.383L159.82.548a1.847 1.847 0 011.288-.521c.988 0 1.737.74 1.737 1.589 0 .411-.15.795-.45 1.096l-6.918 6.904 6.918 6.903c.3.302.45.712.45 1.096zm-26.422 1.589c-5.541 0-10.034-4.301-10.034-9.588 0-5.288 4.493-9.589 10.034-9.589s10.064 4.301 10.064 9.589c0 5.287-4.523 9.588-10.064 9.588zm0-15.971c-3.594 0-6.529 2.849-6.529 6.383s2.935 6.383 6.529 6.383c3.624 0 6.559-2.849 6.559-6.383s-2.935-6.383-6.559-6.383zm-22.498 15.971c-5.541 0-10.034-4.301-10.034-9.588 0-5.288 4.493-9.589 10.034-9.589s10.064 4.301 10.064 9.589c0 5.287-4.523 9.588-10.064 9.588zm0-15.971c-3.594 0-6.529 2.849-6.529 6.383s2.935 6.383 6.529 6.383c3.624 0 6.559-2.849 6.559-6.383s-2.935-6.383-6.559-6.383zM95.352 19.204h-6.11c-.959 0-1.737-.712-1.737-1.589V1.616c0-.876.778-1.589 1.737-1.589h4.822c.15 0 1.438.055 2.726.631 1.916.876 2.935 2.465 2.935 4.574 0 1.151-.33 2.192-.929 3.014 1.737 1.041 2.696 2.794 2.696 4.958 0 3.699-3.325 6-6.14 6zM94.304 3.233h-3.295v3.999h2.606c.449 0 2.635-.082 2.635-2 0-1.835-1.377-1.999-1.946-1.999zm.838 7.177h-4.133v5.589h4.133c.03 0 .839-.028 1.558-.384 1.168-.603 1.288-1.671 1.288-2.411 0-1.013-.689-2.794-2.846-2.794zM75.04 19.204c-5.541 0-10.033-4.301-10.033-9.588 0-5.288 4.492-9.589 10.033-9.589 5.541 0 10.064 4.301 10.064 9.589 0 5.287-4.523 9.588-10.064 9.588zm0-15.971c-3.594 0-6.529 2.849-6.529 6.383s2.935 6.383 6.529 6.383c3.624 0 6.56-2.849 6.56-6.383s-2.936-6.383-6.56-6.383zM55.629 19.149h-.24c-2.546-.082-4.762-1.397-5.81-3.452a1.417 1.417 0 01-.15-.685c0-.602.359-1.178 1.018-1.451.24-.11.479-.137.719-.137.659 0 1.318.328 1.617.931.48.959 1.498 1.561 2.726 1.589h.15c1.048 0 1.917-.301 2.546-.877.599-.548.928-1.233.928-1.972v-.11c-.09-1.26-2.695-2.383-3.834-2.684l-.119-.055c-3.085-1.014-4.643-2.795-4.643-5.26v-.219c.06-1.397.749-2.658 2.037-3.534C53.652.466 55.12 0 56.677 0h.27c1.258.027 2.546.493 3.594 1.205.449.329.689.795.689 1.261 0 .328-.12.684-.36.958a1.85 1.85 0 01-1.407.631c-.36 0-.719-.083-1.049-.302a3.052 3.052 0 00-1.587-.548h-.18c-1.467 0-2.606.685-2.636 1.671v.11c0 1.342 1.139 1.835 2.307 2.274.898.246 6.11 1.78 6.29 5.561v.274c0 1.589-.689 3.095-1.887 4.191-1.318 1.206-3.115 1.863-5.092 1.863zm-8.599-1.534c0 .877-.779 1.589-1.737 1.589a1.78 1.78 0 01-1.288-.521l-7.428-7.451v6.383c0 .877-.809 1.589-1.768 1.589-.958 0-1.737-.712-1.737-1.589V1.616c0-.876.779-1.589 1.737-1.589.959 0 1.768.713 1.768 1.589v6.383L44.005.548a1.847 1.847 0 011.288-.521c.988 0 1.737.74 1.737 1.589 0 .411-.15.795-.45 1.096l-6.918 6.904 6.918 6.903c.3.302.45.712.45 1.096zm-18.723-1.616c.988 0 1.767.712 1.767 1.616 0 .877-.779 1.589-1.767 1.589h-9.585c-.988 0-1.767-.712-1.767-1.589V1.616c0-.876.779-1.589 1.767-1.589h9.585c.988 0 1.767.713 1.767 1.589 0 .904-.779 1.617-1.767 1.617H20.46v4.794h6.11c.958 0 1.737.712 1.737 1.589 0 .876-.779 1.589-1.737 1.589h-6.11v4.794h7.847zm-14.35 1.616c0 .877-.779 1.589-1.737 1.589-.479 0-.929-.164-1.288-.521l-7.428-7.451v6.383c0 .877-.809 1.589-1.767 1.589-.959 0-1.737-.712-1.737-1.589V1.616C0 .74.778.027 1.737.027c.958 0 1.767.713 1.767 1.589v6.383L10.932.548A1.849 1.849 0 0112.22.027c.988 0 1.737.74 1.737 1.589 0 .411-.15.795-.449 1.096L6.589 9.616l6.919 6.903c.299.302.449.712.449 1.096z" stroke="#343434" stroke-linejoin="round" stroke-opacity=".5"/></g></symbol><symbol id="main-pin" viewBox="0 0 511.999 511.999"><path d="M255.999 0C152.786 0 68.817 85.478 68.817 190.545c0 58.77 29.724 130.103 88.349 212.017 42.902 59.948 85.178 102.702 86.957 104.494a16.691 16.691 0 0011.879 4.943c4.182 0 8.367-1.558 11.611-4.683 1.783-1.717 44.166-42.74 87.149-101.86 58.672-80.701 88.421-153.007 88.421-214.912C443.181 85.478 359.21 0 255.999 0zm0 272.806c-50.46 0-91.511-41.052-91.511-91.511s41.052-91.511 91.511-91.511 91.511 41.052 91.511 91.511-41.053 91.511-91.511 91.511z"/></symbol><symbol id="muffin-grey" viewBox="0 0 39 43"><path d="M33.684 28.274a4.949 4.949 0 01-3.91-1.91l-1.044-1.331-.987 1.375a4.991 4.991 0 01-4.051 2.08 4.947 4.947 0 01-2.862-.912l-1.145-.811-.693 1.22a6.35 6.35 0 01-5.521 3.214 6.33 6.33 0 01-5.275-2.838l-.557-.837-.943.351a4.98 4.98 0 01-6.705-4.673 4.947 4.947 0 013.164-4.627l.824-.322-.023-1.014c.003-2.011 1.109-3.835 2.894-5.175a6.754 6.754 0 01.927-4.654c-1.621-1.5-3.203-3.506-3.528-5.806a1.41 1.41 0 112.793-.394c.205 1.454 1.371 2.932 2.693 4.152a6.76 6.76 0 013.828-1.178c3.051.004 5.636 2.03 6.486 4.806a13.08 13.08 0 013.783-.547c5.774.007 10.466 3.643 10.46 8.105a6.793 6.793 0 01-.037.646l-.109 1.041 1 .306a4.946 4.946 0 013.52 4.764 4.981 4.981 0 01-4.982 4.969zM13.56 6.159a4.784 4.784 0 00-2.201.534c.48.352.939.654 1.337.894a1.41 1.41 0 01-1.453 2.418 22.041 22.041 0 01-1.93-1.311 4.79 4.79 0 00-.576 2.276 4.823 4.823 0 004.811 4.824 4.824 4.824 0 004.823-4.812 4.823 4.823 0 00-4.811-4.823zM11.3 32.824s.407 3.931.513 5.818c.041.723.505 1.047.789 1.12.264.069.765.065.996-.044.322-.153.633-.278.653-1.163.037-1.651-.389-5.466-.389-5.466a8.761 8.761 0 002.035-.327s.142 5.676.263 6.455c.124.791.701.98 1.227.98.55 0 1.174-.3 1.164-1.182l-.082-7.455a8.886 8.886 0 002.025-1.892c.047.023.096.043.143.064 0 0-.133 8.667-.098 9.328.047.883.631 1.221 1.279 1.222.656.001 1.259-.453 1.348-1.162.082-.657.249-8.74.249-8.74.093.004.187.009.281.009a7.49 7.49 0 001.951-.259s-.515 7.681-.427 8.258c.123.809.628 1.165 1.306 1.165.645.001 1.204-.487 1.326-1.35.076-.539.87-9.741.87-9.741.033-.029.066-.056.097-.085a7.45 7.45 0 004.062 1.75L31.243 40.6c-.216 1.38-1.535 2.507-2.931 2.505l-17.657-.023C9.258 43.08 7.941 41.95 7.73 40.57L6.105 29.997c.185-.028.369-.06.552-.102a8.855 8.855 0 004.643 2.929z" class="cls-1"/></symbol><symbol id="muffin-red" viewBox="0 0 39 43"><path d="M33.684 28.274a4.949 4.949 0 01-3.91-1.91l-1.044-1.331-.987 1.375a4.991 4.991 0 01-4.051 2.08 4.947 4.947 0 01-2.862-.912l-1.145-.81-.693 1.219a6.353 6.353 0 01-5.521 3.214 6.33 6.33 0 01-5.275-2.838l-.557-.837-.943.35a4.98 4.98 0 01-6.705-4.672 4.947 4.947 0 013.164-4.627l.824-.322-.023-1.014c.003-2.011 1.109-3.835 2.894-5.175a6.754 6.754 0 01.927-4.654c-1.621-1.5-3.203-3.506-3.528-5.806a1.41 1.41 0 112.793-.394c.205 1.454 1.371 2.933 2.693 4.153a6.753 6.753 0 013.828-1.179c3.051.004 5.636 2.03 6.486 4.806a13.08 13.08 0 013.783-.547c5.774.007 10.466 3.643 10.46 8.105a6.478 6.478 0 01-.037.646l-.109 1.041 1 .306a4.946 4.946 0 013.52 4.764 4.982 4.982 0 01-4.982 4.969zM13.56 6.159a4.784 4.784 0 00-2.201.534c.48.352.939.655 1.337.894a1.41 1.41 0 01-1.453 2.418 22.041 22.041 0 01-1.93-1.311 4.79 4.79 0 00-.576 2.276 4.823 4.823 0 004.811 4.824 4.824 4.824 0 004.823-4.812 4.823 4.823 0 00-4.811-4.823zM11.3 32.824s.407 3.931.513 5.818c.041.723.505 1.047.789 1.12.264.069.765.065.996-.044.322-.153.633-.278.653-1.163.037-1.651-.389-5.466-.389-5.466a8.761 8.761 0 002.035-.327s.142 5.676.263 6.455c.124.791.701.98 1.227.981.55 0 1.174-.301 1.164-1.183l-.082-7.455a8.886 8.886 0 002.025-1.892c.047.023.096.042.143.064 0 0-.133 8.667-.098 9.328.047.883.631 1.221 1.279 1.222.656.001 1.259-.453 1.348-1.162.082-.657.249-8.74.249-8.74.093.004.187.009.281.009a7.49 7.49 0 001.951-.259s-.515 7.681-.427 8.258c.123.809.628 1.165 1.306 1.165.645.001 1.204-.487 1.326-1.35.076-.539.87-9.741.87-9.741.033-.028.066-.056.097-.085a7.45 7.45 0 004.062 1.75L31.243 40.6c-.216 1.38-1.535 2.507-2.931 2.505l-17.657-.023c-1.397-.002-2.714-1.132-2.925-2.513L6.105 29.997c.185-.028.369-.06.552-.102a8.855 8.855 0 004.643 2.929z" class="cls-1"/></symbol><symbol id="muffin-white" preserveAspectRatio="xMidYMid"><path d="M94.897 79.677c-4.322-.006-8.336-1.967-11.012-5.381l-2.941-3.753-2.779 3.875a14.054 14.054 0 01-11.41 5.861 13.906 13.906 0 01-8.063-2.57l-3.223-2.283-1.952 3.436c-3.176 5.596-9.135 9.067-15.553 9.058a17.832 17.832 0 01-14.858-7.996l-1.568-2.361-2.655.988a13.964 13.964 0 01-4.894.873c-7.725-.01-14.003-6.309-13.993-14.04C.003 59.58 3.5 54.462 8.907 52.346l2.323-.909-.066-2.857c.008-5.668 3.122-10.808 8.153-14.582a19.209 19.209 0 01-.249-3.092 19.034 19.034 0 012.857-10.024c-4.564-4.227-9.021-9.88-9.935-16.362a3.973 3.973 0 013.951-4.531 3.97 3.97 0 013.917 3.422c.576 4.096 3.86 8.263 7.585 11.701a19.017 19.017 0 0110.78-3.321c8.594.012 15.875 5.721 18.27 13.544a36.829 36.829 0 0110.655-1.543c16.263.022 29.479 10.268 29.462 22.842a17.886 17.886 0 01-.104 1.821l-.307 2.932 2.817.862c5.937 1.814 9.922 7.209 9.914 13.426-.01 7.732-6.306 14.012-14.033 14.002zM38.216 17.356a13.476 13.476 0 00-6.2 1.505 50.397 50.397 0 003.766 2.519 3.976 3.976 0 01-4.094 6.815 62.21 62.21 0 01-5.434-3.694 13.503 13.503 0 00-1.624 6.412c-.01 7.487 6.069 13.584 13.55 13.594 7.481.01 13.576-6.071 13.586-13.558.009-7.484-6.069-13.583-13.55-13.593zM31.851 92.5s1.146 11.077 1.444 16.394c.114 2.038 1.422 2.951 2.223 3.158.744.192 2.153.182 2.805-.126.907-.43 1.783-.782 1.838-3.277.104-4.651-1.095-15.402-1.095-15.402a24.848 24.848 0 005.732-.922s.399 15.995.742 18.191c.347 2.227 1.972 2.761 3.454 2.762 1.549 0 3.308-.846 3.281-3.334l-.232-21.006a25.074 25.074 0 005.702-5.331c.133.063.271.118.404.178 0 0-.375 24.425-.276 26.287.133 2.489 1.778 3.442 3.603 3.445 1.849.002 3.547-1.278 3.796-3.276.231-1.85.701-24.628.701-24.628.263.011.527.024.791.024a21.01 21.01 0 005.497-.73s-1.451 21.646-1.203 23.271c.346 2.28 1.768 3.282 3.679 3.285 1.817.002 3.391-1.374 3.733-3.805.214-1.521 2.453-27.451 2.453-27.451.091-.08.184-.157.272-.24a20.986 20.986 0 0011.441 4.931l-4.613 29.515c-.607 3.888-4.323 7.065-8.256 7.059l-49.735-.065c-3.934-.005-7.642-3.191-8.239-7.081l-4.576-29.793a21.17 21.17 0 001.556-.288A24.943 24.943 0 0031.851 92.5z" fill-rule="evenodd"/></symbol><symbol id="pin" viewBox="0 0 511.999 511.999"><path d="M255.999 0C152.786 0 68.817 85.478 68.817 190.545c0 58.77 29.724 130.103 88.349 212.017 42.902 59.948 85.178 102.702 86.957 104.494a16.691 16.691 0 0011.879 4.943c4.182 0 8.367-1.558 11.611-4.683 1.783-1.717 44.166-42.74 87.149-101.86 58.672-80.701 88.421-153.007 88.421-214.912C443.181 85.478 359.21 0 255.999 0zm0 272.806c-50.46 0-91.511-41.052-91.511-91.511s41.052-91.511 91.511-91.511 91.511 41.052 91.511 91.511-41.053 91.511-91.511 91.511z"/></symbol><symbol id="sprite-feature" viewBox="0 0 34 466"><path d="M26.171 145.928H7.758A2.258 2.258 0 015.5 143.67v-21.411A2.258 2.258 0 017.758 120h18.413a2.26 2.26 0 012.259 2.259v21.411a2.259 2.259 0 01-2.259 2.258zm.327-23.997H7.431v4.101h19.067v-4.101zm0 19.168V128.068H7.431V143.997h19.067v-2.898zm-9.541-11.618a6.874 6.874 0 016.867 6.867 6.874 6.874 0 01-6.867 6.866 6.874 6.874 0 01-6.866-6.866 6.874 6.874 0 016.866-6.867zm0 11.791a4.93 4.93 0 004.926-4.924 4.931 4.931 0 00-4.926-4.925 4.93 4.93 0 00-4.924 4.925 4.93 4.93 0 004.924 4.924zm1.159-2.307c.456 0 .897-.071 1.316-.197a3.596 3.596 0 01-2.52 1.046c-1.97 0-3.614-1.644-3.614-3.614 0-.407.073-.798.202-1.166.37 2.205 2.319 3.931 4.616 3.931zm-1.489-15.986c1.245 0 1.245 1.932 0 1.932-1.246 0-1.246-1.932 0-1.932zm3.199 0c1.245 0 1.245 1.932 0 1.932-1.246 0-1.246-1.932 0-1.932zm3.258 0c1.246 0 1.246 1.932 0 1.932-1.245 0-1.245-1.932 0-1.932z" class="cls-1" bx:origin="0.48 0.5" fill-rule="evenodd"/><path d="M27.826 178.078l-3.288-1.898 2.385-.396a.862.862 0 00.709-.992.856.856 0 00-.992-.71l-4.454.74-3.097-1.788 3.097-1.788 4.454.74a.863.863 0 00.283-1.702l-2.385-.396 3.288-1.898a1.078 1.078 0 10-1.078-1.868l-3.288 1.898.85-2.262a.864.864 0 00-1.616-.607l-1.587 4.228-3.096 1.787v-3.575l2.868-3.487a.863.863 0 00-1.333-1.096l-1.535 1.866v-3.796a1.078 1.078 0 10-2.156 0v3.796l-1.535-1.866a.863.863 0 00-1.333 1.096l2.868 3.487v3.575l-3.096-1.787-1.587-4.228a.864.864 0 00-1.616.607l.849 2.262-3.287-1.898a1.08 1.08 0 00-1.079 1.868l3.289 1.898-2.385.396a.862.862 0 10.283 1.702l4.454-.74 3.096 1.788-2.802 1.618-4.712-.782a1.078 1.078 0 10-.354 2.127l2.126.352-2.995 1.729a1.08 1.08 0 001.079 1.868l3.287-1.899-.849 2.263a.865.865 0 00.808 1.166.864.864 0 00.808-.56l1.587-4.227 3.096-1.788v3.576l-2.868 3.487a.864.864 0 00.666 1.411.864.864 0 00.667-.315l1.535-1.866v3.796a1.077 1.077 0 102.156 0v-3.796l1.535 1.866a.864.864 0 001.333-1.096l-2.868-3.487v-3.576l3.096 1.788 1.587 4.227a.863.863 0 101.616-.606l-.85-2.263 3.288 1.899a1.076 1.076 0 001.473-.395 1.078 1.078 0 00-.395-1.473z" class="cls-1" fill-rule="evenodd"/><g transform="translate(3 79)"><rect x="1" y="1" width="26" height="26" rx="4" ry="4" class="cls-1" stroke="#333" stroke-width="2"/><path d="M13.067 15.317c1.663 0 2.972-.398 3.925-1.195.953-.798 1.43-1.862 1.43-3.194 0-.9-.22-1.705-.661-2.414-.441-.71-1.063-1.257-1.866-1.641-.804-.385-1.727-.577-2.771-.577H7.675V19.95h3.292v-4.633h2.1zm-2.1-6.48h2.194c.594.007 1.063.2 1.407.582.344.381.516.891.516 1.528 0 .582-.168 1.032-.502 1.351-.335.318-.821.478-1.458.478h-2.157V8.837z" class="cls-2" fill-rule="evenodd"/></g><path d="M32.266 51.282v9.658c0 .63-.442 1.14-1.071 1.14a1.14 1.14 0 01-1.139-1.14V40.033c2.57-.145 5.538 9.296 2.21 11.249zM16.962 62.717c-6.273 0-11.357-5.084-11.357-11.358C5.605 45.086 10.689 40 16.962 40c6.272 0 11.359 5.086 11.359 11.359 0 6.274-5.087 11.358-11.359 11.358zm0-20.186a8.827 8.827 0 10.002 17.654 8.827 8.827 0 00-.002-17.654zm-.001 14.611a5.782 5.782 0 110-11.564 5.782 5.782 0 010 11.564zM3.702 60.939c0 .63-.442 1.139-1.071 1.139a1.14 1.14 0 01-1.14-1.139V48.114C.608 47.571 0 46.437 0 45.119v-5.068l1.33 5.068.476-5.068.852 5.068.838-5.109.422 5.109 1.328-5.068v5.068c0 1.343-.634 2.498-1.544 3.027v12.793zM31.19 5.95C27.492 2.114 22.532 0 17.221 0 11.944 0 7.006 2.088 3.315 5.879a1.115 1.115 0 001.599 1.554c3.267-3.357 7.638-5.205 12.308-5.205 4.699 0 9.09 1.872 12.365 5.267a1.114 1.114 0 001.576.031 1.117 1.117 0 00.027-1.576zm-13.969-.262c-3.76 0-7.272 1.498-9.887 4.216A1.114 1.114 0 108.94 11.45a11.399 11.399 0 018.281-3.535c3.179 0 6.14 1.278 8.336 3.596a1.11 1.11 0 001.576.044 1.115 1.115 0 00.042-1.575c-2.623-2.768-6.158-4.292-9.954-4.292zm0 5.663a8.08 8.08 0 00-5.894 2.572 1.114 1.114 0 101.63 1.519 5.773 5.773 0 014.264-1.864c1.636 0 3.207.7 4.314 1.921.218.243.523.364.825.364a1.112 1.112 0 00.825-1.862 8.078 8.078 0 00-5.964-2.65zm0 5.99a2.072 2.072 0 100 4.143 2.072 2.072 0 000-4.143zM28.03 225.987H5.912A1.912 1.912 0 014 224.074v-22.161c0-1.057.856-1.913 1.912-1.913H28.03c1.056 0 1.912.856 1.912 1.913v22.161a1.912 1.912 0 01-1.912 1.913zm0-23.795a.28.28 0 00-.279-.279H6.191a.28.28 0 00-.279.279v21.603a.28.28 0 00.279.279h21.56a.28.28 0 00.279-.279v-21.603zm-5.737 18.514a.297.297 0 01-.256-.147l-3.53-6.102a.29.29 0 01.256-.435h7.06c.104 0 .202.056.255.145.053.09.053.2 0 .29l-3.529 6.102a.3.3 0 01-.256.147zm-3.53-8.616a.3.3 0 01-.256-.144.29.29 0 010-.291l3.53-6.101a.296.296 0 01.512 0l3.529 6.101a.286.286 0 010 .291.298.298 0 01-.255.144h-7.06zm-4.12 4.313l-.395 4.908a1.422 1.422 0 01-1.417 1.307h-1.144a1.42 1.42 0 01-1.416-1.303l-.409-4.912a1.913 1.913 0 01-1.912-1.913v-3.346c0-1.057.856-1.913 1.912-1.913h.717l1.673 3.06 1.674-3.06h.717c1.056 0 1.912.856 1.912 1.913v3.346a1.913 1.913 0 01-1.912 1.913zm-2.391-8.128a2.39 2.39 0 110-4.78 2.39 2.39 0 010 4.78z" class="cls-1" fill-rule="evenodd"/><path d="M26.171 385.928H7.758A2.258 2.258 0 015.5 383.67v-21.411A2.258 2.258 0 017.758 360h18.413a2.26 2.26 0 012.259 2.259v21.411a2.259 2.259 0 01-2.259 2.258zm.327-23.997H7.431v4.101h19.067v-4.101zm0 19.168V368.068H7.431V383.997h19.067v-2.898zm-9.541-11.618a6.874 6.874 0 016.867 6.867 6.874 6.874 0 01-6.867 6.866 6.874 6.874 0 01-6.866-6.866 6.874 6.874 0 016.866-6.867zm0 11.791a4.93 4.93 0 004.926-4.924 4.931 4.931 0 00-4.926-4.925 4.93 4.93 0 00-4.924 4.925 4.93 4.93 0 004.924 4.924zm1.159-2.307c.456 0 .897-.071 1.316-.197a3.596 3.596 0 01-2.52 1.046c-1.97 0-3.614-1.644-3.614-3.614 0-.407.073-.798.202-1.166.37 2.205 2.319 3.931 4.616 3.931zm-1.489-15.986c1.245 0 1.245 1.932 0 1.932-1.246 0-1.246-1.932 0-1.932zm3.199 0c1.245 0 1.245 1.932 0 1.932-1.246 0-1.246-1.932 0-1.932zm3.258 0c1.246 0 1.246 1.932 0 1.932-1.245 0-1.245-1.932 0-1.932zM27.826 418.078l-3.288-1.898 2.385-.396a.862.862 0 00.709-.992.856.856 0 00-.992-.71l-4.454.74-3.097-1.788 3.097-1.788 4.454.74a.863.863 0 00.283-1.702l-2.385-.396 3.288-1.898a1.078 1.078 0 10-1.078-1.868l-3.288 1.898.85-2.262a.864.864 0 00-1.616-.607l-1.587 4.228-3.096 1.787v-3.575l2.868-3.487a.863.863 0 00-1.333-1.096l-1.535 1.866v-3.796a1.078 1.078 0 10-2.156 0v3.796l-1.535-1.866a.863.863 0 00-1.333 1.096l2.868 3.487v3.575l-3.096-1.787-1.587-4.228a.864.864 0 00-1.616.607l.849 2.262-3.287-1.898a1.08 1.08 0 00-1.079 1.868l3.289 1.898-2.385.396a.862.862 0 10.283 1.702l4.454-.74 3.096 1.788-2.802 1.618-4.712-.782a1.078 1.078 0 10-.354 2.127l2.126.352-2.995 1.729a1.08 1.08 0 001.079 1.868l3.287-1.899-.849 2.263a.865.865 0 00.808 1.166.864.864 0 00.808-.56l1.587-4.227 3.096-1.788v3.576l-2.868 3.487a.864.864 0 00.666 1.411.864.864 0 00.667-.315l1.535-1.866v3.796a1.077 1.077 0 102.156 0v-3.796l1.535 1.866a.864.864 0 001.333-1.096l-2.868-3.487v-3.576l3.096 1.788 1.587 4.227a.863.863 0 101.616-.606l-.85-2.263 3.288 1.899a1.076 1.076 0 001.473-.395 1.078 1.078 0 00-.395-1.473zM32.266 291.282v9.658c0 .63-.442 1.14-1.071 1.14a1.14 1.14 0 01-1.139-1.14v-20.907c2.57-.145 5.538 9.296 2.21 11.249zm-15.304 11.435c-6.273 0-11.357-5.084-11.357-11.358 0-6.273 5.084-11.359 11.357-11.359 6.272 0 11.359 5.086 11.359 11.359 0 6.274-5.087 11.358-11.359 11.358zm0-20.186a8.827 8.827 0 10.002 17.654 8.827 8.827 0 00-.002-17.654zm-.001 14.611a5.782 5.782 0 110-11.564 5.782 5.782 0 010 11.564zm-13.259 3.797c0 .63-.442 1.139-1.071 1.139a1.14 1.14 0 01-1.14-1.139v-12.825C.608 287.571 0 286.437 0 285.119v-5.068l1.33 5.068.476-5.068.852 5.068.838-5.109.422 5.109 1.328-5.068v5.068c0 1.343-.634 2.498-1.544 3.027v12.793zM31.19 245.95c-3.698-3.836-8.658-5.95-13.969-5.95-5.277 0-10.215 2.088-13.906 5.879a1.115 1.115 0 001.599 1.554c3.267-3.357 7.638-5.205 12.308-5.205 4.699 0 9.09 1.872 12.365 5.267a1.114 1.114 0 001.576.031 1.117 1.117 0 00.027-1.576zm-13.969-.262c-3.76 0-7.272 1.498-9.887 4.216a1.114 1.114 0 101.606 1.546 11.399 11.399 0 018.281-3.535c3.179 0 6.14 1.278 8.336 3.596a1.11 1.11 0 001.576.044 1.115 1.115 0 00.042-1.575c-2.623-2.768-6.158-4.292-9.954-4.292zm0 5.663a8.08 8.08 0 00-5.894 2.572 1.114 1.114 0 101.63 1.519 5.773 5.773 0 014.264-1.864c1.636 0 3.207.7 4.314 1.921.218.243.523.364.825.364a1.112 1.112 0 00.825-1.862 8.078 8.078 0 00-5.964-2.65zm0 5.99a2.072 2.072 0 100 4.143 2.072 2.072 0 000-4.143zM28.03 465.987H5.912A1.912 1.912 0 014 464.074v-22.161c0-1.057.856-1.913 1.912-1.913H28.03c1.056 0 1.912.856 1.912 1.913v22.161a1.912 1.912 0 01-1.912 1.913zm0-23.795a.28.28 0 00-.279-.279H6.191a.28.28 0 00-.279.279v21.603a.28.28 0 00.279.279h21.56a.28.28 0 00.279-.279v-21.603zm-5.737 18.514a.297.297 0 01-.256-.147l-3.53-6.102a.29.29 0 01.256-.435h7.06c.104 0 .202.056.255.145.053.09.053.2 0 .29l-3.529 6.102a.3.3 0 01-.256.147zm-3.53-8.616a.3.3 0 01-.256-.144.29.29 0 010-.291l3.53-6.101a.296.296 0 01.512 0l3.529 6.101a.286.286 0 010 .291.298.298 0 01-.255.144h-7.06zm-4.12 4.313l-.395 4.908a1.422 1.422 0 01-1.417 1.307h-1.144a1.42 1.42 0 01-1.416-1.303l-.409-4.912a1.913 1.913 0 01-1.912-1.913v-3.346c0-1.057.856-1.913 1.912-1.913h.717l1.673 3.06 1.674-3.06h.717c1.056 0 1.912.856 1.912 1.913v3.346a1.913 1.913 0 01-1.912 1.913zm-2.391-8.128a2.39 2.39 0 110-4.78 2.39 2.39 0 010 4.78z" class="cls-1" fill-rule="evenodd"/><g transform="translate(3 319)"><rect x="1" y="1" width="26" height="26" rx="4" ry="4" class="cls-1" stroke-width="2" stroke="#fff"/><path d="M13.067 15.317c1.663 0 2.972-.398 3.925-1.195.953-.798 1.43-1.862 1.43-3.194 0-.9-.22-1.705-.661-2.414-.441-.71-1.063-1.257-1.866-1.641-.804-.385-1.727-.577-2.771-.577H7.675V19.95h3.292v-4.633h2.1zm-2.1-6.48h2.194c.594.007 1.063.2 1.407.582.344.381.516.891.516 1.528 0 .582-.168 1.032-.502 1.351-.335.318-.821.478-1.458.478h-2.157V8.837z" class="cls-2" fill-rule="evenodd" stroke="#fff"/></g></symbol><symbol id="sprite-social" viewBox="0 0 29 274"><path d="M14.114 133.228C6.319 133.228 0 126.909 0 119.114 0 111.319 6.319 105 14.114 105c7.795 0 14.114 6.319 14.114 14.114 0 7.795-6.319 14.114-14.114 14.114zm4.686-13.792c-.453-.491-1.059-.814-1.813-.974v-.064a2.64 2.64 0 001.233-1.029c.3-.465.449-.995.449-1.592 0-.516-.109-.971-.325-1.366a2.373 2.373 0 00-.982-.945 3.87 3.87 0 00-1.301-.428c-.462-.071-1.143-.104-2.04-.104H9.7v12.229h4.895c.85 0 1.547-.076 2.097-.23a4.309 4.309 0 001.517-.771c.39-.303.698-.681.928-1.14.23-.461.345-.996.345-1.605 0-.83-.227-1.49-.682-1.981zm-3.285 3.246c-.317.137-.631.21-.936.221-.306.012-.859.017-1.657.017h-.166v-3.062h.567c.546 0 .984.003 1.309.012.325.008.583.047.768.121.306.108.535.268.69.484.154.213.229.508.229.886 0 .294-.064.559-.193.791a1.22 1.22 0 01-.611.53zm-.614-5.105a1.81 1.81 0 01-.653.171c-.211.011-.581.016-1.105.016h-.387v-2.587h.213c.547 0 .959.003 1.237.011.277.008.516.056.717.146a.908.908 0 01.474.451c.101.207.152.41.152.608 0 .267-.048.503-.141.707-.092.202-.263.361-.507.477zM14.114 63.228C6.319 63.228 0 56.909 0 49.114 0 41.319 6.319 35 14.114 35c7.795 0 14.114 6.319 14.114 14.114 0 7.795-6.319 14.114-14.114 14.114zm7.21-19.634c0-.867-.702-1.569-1.569-1.569H8.667c-.867 0-1.569.702-1.569 1.569l-.001 11.073c0 .867.703 1.569 1.569 1.569h11.089c.867 0 1.569-.702 1.569-1.569V43.594zm-2.088 2.807h-1.677a.55.55 0 01-.55-.55v-1.677a.55.55 0 01.55-.55h1.677a.55.55 0 01.55.55v1.677a.55.55 0 01-.55.55zm-5.003 5.312a2.552 2.552 0 010-5.106c1.411 0 2.758 1.029 2.758 2.552 0 1.524-1.347 2.554-2.758 2.554zm0 1.877a4.427 4.427 0 004.285-5.539c.794.001 1.241-.001 1.241-.001v6.104a.55.55 0 01-.55.55H9.257a.55.55 0 01-.55-.55V48.05l1.241.001a4.427 4.427 0 004.285 5.539zM14.115 28.228C6.32 28.228.001 21.909.001 14.114.001 6.319 6.32 0 14.115 0c7.794 0 14.113 6.319 14.113 14.114 0 7.795-6.319 14.114-14.113 14.114zm7.777-19.801a6.548 6.548 0 01-2.08.795 3.276 3.276 0 00-5.583 2.988 9.303 9.303 0 01-6.752-3.423 3.277 3.277 0 001.014 4.374 3.266 3.266 0 01-1.484-.41v.041a3.28 3.28 0 002.627 3.213 3.31 3.31 0 01-1.479.055 3.278 3.278 0 003.06 2.275 6.569 6.569 0 01-4.85 1.357 9.27 9.27 0 005.022 1.472c6.026 0 9.321-4.992 9.321-9.321a8.54 8.54 0 00-.01-.424 6.654 6.654 0 001.635-1.695 6.558 6.558 0 01-1.881.515 3.286 3.286 0 001.44-1.812zM14.115 98.228C6.32 98.228.001 91.909.001 84.114.001 76.319 6.32 70 14.115 70c7.795 0 14.114 6.319 14.114 14.114 0 7.795-6.319 14.114-14.114 14.114zm3.516-22.769H15.12c-2.963 0-3.672 1.39-3.672 3.905v1.978H9.749v2.778h1.699v8.357h3.363V84.12h2.466l.257-2.778h-2.723l.004-1.67c0-.804.076-1.129 1.23-1.129h1.586v-3.084z" class="cls-1" fill-rule="evenodd"/><path d="M14.115 273.228c-7.795 0-14.114-6.319-14.114-14.114C.001 251.319 6.32 245 14.115 245c7.795 0 14.114 6.319 14.114 14.114 0 7.795-6.319 14.114-14.114 14.114zm4.686-13.792c-.453-.491-1.059-.814-1.813-.974v-.064a2.64 2.64 0 001.233-1.029c.3-.465.449-.995.449-1.592 0-.516-.109-.971-.325-1.366a2.373 2.373 0 00-.982-.945 3.87 3.87 0 00-1.301-.428c-.462-.071-1.143-.104-2.04-.104H9.701v12.229h4.895c.85 0 1.547-.076 2.097-.23a4.309 4.309 0 001.517-.771c.39-.303.698-.681.928-1.14.23-.461.345-.996.345-1.605 0-.83-.227-1.49-.682-1.981zm-3.285 3.246c-.317.137-.631.21-.936.221-.306.012-.859.017-1.657.017h-.166v-3.062h.567c.546 0 .984.003 1.309.012.325.008.583.047.768.121.306.108.535.268.69.484.154.213.229.508.229.886 0 .294-.064.559-.193.791a1.22 1.22 0 01-.611.53zm-.614-5.105a1.81 1.81 0 01-.653.171c-.211.011-.581.016-1.105.016h-.387v-2.587h.213c.547 0 .959.003 1.237.011.277.008.516.056.717.146a.908.908 0 01.474.451c.101.207.152.41.152.608 0 .267-.048.503-.141.707-.092.202-.263.361-.507.477zM14.115 203.228c-7.795 0-14.114-6.319-14.114-14.114C.001 181.319 6.32 175 14.115 175c7.795 0 14.114 6.319 14.114 14.114 0 7.795-6.319 14.114-14.114 14.114zm7.21-19.634c0-.867-.702-1.569-1.569-1.569H8.668c-.867 0-1.569.702-1.569 1.569l-.001 11.073c0 .867.703 1.569 1.569 1.569h11.089c.867 0 1.569-.702 1.569-1.569v-11.073zm-2.088 2.807H17.56a.55.55 0 01-.55-.55v-1.677a.55.55 0 01.55-.55h1.677a.55.55 0 01.55.55v1.677a.55.55 0 01-.55.55zm-5.003 5.312a2.552 2.552 0 010-5.106c1.411 0 2.758 1.029 2.758 2.552 0 1.524-1.347 2.554-2.758 2.554zm0 1.877a4.427 4.427 0 004.285-5.539c.794.001 1.241-.001 1.241-.001v6.104a.55.55 0 01-.55.55H9.258a.55.55 0 01-.55-.55v-6.104l1.241.001a4.427 4.427 0 004.285 5.539zM14.116 168.228c-7.795 0-14.114-6.319-14.114-14.114C.002 146.319 6.321 140 14.116 140c7.794 0 14.113 6.319 14.113 14.114 0 7.795-6.319 14.114-14.113 14.114zm7.777-19.801a6.548 6.548 0 01-2.08.795 3.276 3.276 0 00-5.583 2.988 9.303 9.303 0 01-6.752-3.423 3.277 3.277 0 001.014 4.374 3.266 3.266 0 01-1.484-.41v.041a3.28 3.28 0 002.627 3.213 3.31 3.31 0 01-1.479.055 3.278 3.278 0 003.06 2.275 6.569 6.569 0 01-4.85 1.357 9.27 9.27 0 005.022 1.472c6.026 0 9.321-4.992 9.321-9.321a8.54 8.54 0 00-.01-.424 6.654 6.654 0 001.635-1.695 6.558 6.558 0 01-1.881.515 3.286 3.286 0 001.44-1.812zM14.116 238.228c-7.795 0-14.114-6.319-14.114-14.114C.002 216.319 6.321 210 14.116 210c7.795 0 14.114 6.319 14.114 14.114 0 7.795-6.319 14.114-14.114 14.114zm3.516-22.769h-2.511c-2.963 0-3.672 1.39-3.672 3.905v1.978H9.75v2.778h1.699v8.357h3.363v-8.357h2.466l.257-2.778h-2.723l.004-1.67c0-.804.076-1.129 1.23-1.129h1.586v-3.084z" class="cls-1" fill-rule="evenodd"/></symbol></svg>